<svg xmlns="http://www.w3.org/2000/svg" viewBox="0 0 99.99996 100"><title>Profile 1</title><path d="M99.916,50a49.90234,49.90234,0,0,1-16.607,37.23982c-.07289.06566-.14577.13137-.21865.18978a50.62274,50.62274,0,0,1-4.72194,3.7152,49.40822,49.40822,0,0,1-17.59811,7.68593c-.91095.20435-1.82922.37952-2.76174.52551a50.21,50.21,0,0,1-16.57809-.0949c-.9327-.16055-1.85809-.35034-2.769-.562a49.60643,49.60643,0,0,1-17.38694-7.81q-1.96706-1.3905-3.79636-2.96342c-.08019-.06571-.15308-.13138-.23327-.19709A49.96163,49.96163,0,1,1,99.916,50Z" fill="#dcf5ff"/><path d="M75.47159,80.32859c0,2.62924-1.37231,5.08319-3.75773,7.16815-3.96034,3.478-10.72074,5.9228-18.58632,6.43942h-.00922c-.57092.03688-1.13284.06453-1.713.083-.43285.00923-.875.01847-1.31711.01847h-.13818c-.41442,0-.81961-.00924-1.22492-.01847C39.828,93.77929,32.14669,91.07623,27.956,87.137a9.40768,9.40768,0,0,1-3.36176-6.8084c0-7.57413,11.39317-13.70909,25.43879-13.70909S75.47159,72.75446,75.47159,80.32859Z" fill="#ff74db"/><path d="M78.36844,91.14479a49.86048,49.86048,0,0,1-57.0938-.25545l3.0751-1.59119.03647-.01461.277-.1533c.40794-.21165.80876-.43062,1.20958-.66419a3.58238,3.58238,0,0,0,.32059-.18248c.06565-.03648.12382-.073.18947-.11681.21865-.13138.43729-.27006.65594-.40874.08735-.05836.17488-.11677.26952-.17517.32059-.20435.62677-.41606.93276-.64232.20406-.13869.40812-.29194.59759-.43793a1.00953,1.00953,0,0,0,.18217-.13868c.08006-.0511.153-.10951.24035-.17517.34265-.26276.67053-.52556.99841-.8175.21865-.18247.4227-.365.63405-.54742.29871-.2555.59741-.53287.88882-.83211l.10941-.1095a11.33858,11.33858,0,0,0,.83064-.84667c.31347-.31386.59759-.62771.8817-.96348A29.19349,29.19349,0,0,0,36.796,77.61235a27.86792,27.86792,0,0,0,2.06957-4.27724c.35706-.89781.66306-1.83207.93258-2.77367a28.06127,28.06127,0,0,0,.74329-3.32107l1.0057-6.11661.18218-1.11673L41.92609,58.81H57.21423l.37893,2.31379L58.606,67.24037a29.73683,29.73683,0,0,0,.736,3.32837,30.01731,30.01731,0,0,0,6.19395,11.50333,29.70717,29.70717,0,0,0,4.34321,4.10937c.18218.146.37147.292.56094.416a7.23981,7.23981,0,0,0,.62676.45985c.21135.15325.4227.29924.64117.44523.153.10219.30618.20439.46647.29924.5757.37956,1.17311.72264,1.778,1.0438.17488.10216.34976.18974.53194.28463l.26241.13869.54652.28467Z" fill="#83ddff"/><path d="M78.36844,91.14479a49.86048,49.86048,0,0,1-57.0938-.25545l3.0751-1.59119.03647-.01461.277-.1533c.40794-.21165.80876-.43062,1.20958-.66419a3.58238,3.58238,0,0,0,.32059-.18248c.06565-.03648.12382-.073.18947-.11681.21865-.13138.43729-.27006.65594-.40874.08735-.05836.17488-.11677.26952-.17517.21865-.146.43-.29194.64135-.44524.10194-.06571.19677-.13137.29141-.19708.20406-.13869.40812-.29194.59759-.43793a1.00953,1.00953,0,0,0,.18217-.13868c.20406-.146.40082-.31386.59759-.47446.21847-.16786.42982-.343.64117-.51821.21865-.18247.4227-.365.63405-.54742.29871-.27007.59741-.54743.88882-.83211l.10941-.1095c.277-.27737.56112-.562.83064-.84667.29888-.31386.583-.62771.86-.94887a.05612.05612,0,0,1,.01459-.02192l.00711.00731c.02918.02191.03647.03648.06565.0584,3.81839,3.75173,10.13617,5.40858,15.9076,5.40858,5.815,0,12.15469-1.65685,15.95848-5.467l.01459-.00731A29.78951,29.78951,0,0,0,69.2232,85.634c.40083.33577.80165.65693,1.21688.96348.20406.15325.41541.30655.62676.45985s.4227.29924.64117.44523c.153.10219.30618.20439.46647.29924s.32059.19709.48088.292c.2697.16786.54652.32847.82352.48172.1603.09489.31329.18247.47359.2701.17488.10216.34976.18974.53194.28463l.26241.13869.54652.28467Z" fill="#ff74db"/><path d="M46.80944,93.92693c-1.05931.07376-2.12762.1107-3.22359.1107-7.68142,0-14.56144-1.83586-19.2311-4.74191l.03688-.01847.27635-.14758A27.60274,27.60274,0,0,0,27.956,87.137C31.83358,90.79024,38.732,93.3826,46.80944,93.92693Z" fill="#d4299e"/><path d="M41.43062,90.59005v8.67129c-.93275-.16056-1.85822-.35034-2.7691-.562V92.40025l.13841-.073A14.66727,14.66727,0,0,0,41.43062,90.59005Z" fill="#3f4758"/><ellipse cx="40.09989" cy="59.647" rx="9.47082" ry="9.48648" fill="#214bc5"/><ellipse cx="35.04879" cy="49.52809" rx="10.10221" ry="10.11891" fill="#214bc5"/><ellipse cx="33.78601" cy="40.67404" rx="10.10221" ry="10.11891" fill="#214bc5"/><ellipse cx="33.78601" cy="30.55514" rx="10.10221" ry="10.11891" fill="#214bc5"/><ellipse cx="40.09989" cy="22.96595" rx="10.10221" ry="10.11891" fill="#214bc5"/><ellipse cx="49.5774" cy="27.50165" rx="7.36819" ry="7.38038"/><ellipse cx="59.05492" cy="59.647" rx="9.47082" ry="9.48648" fill="#214bc5"/><ellipse cx="64.10602" cy="49.52809" rx="10.10221" ry="10.11891" fill="#214bc5"/><ellipse cx="65.3688" cy="40.67404" rx="10.10221" ry="10.11891" fill="#214bc5"/><ellipse cx="65.3688" cy="30.55514" rx="10.10221" ry="10.11891" fill="#214bc5"/><ellipse cx="59.05492" cy="22.96595" rx="10.10221" ry="10.11891" fill="#214bc5"/><path d="M56.58261,70.18656c-.55207.68531-4.3618,5.25814-10.53659,5.28616a13.24939,13.24939,0,0,1-7.17468-2.14031,28.8654,28.8654,0,0,0,.9302-2.77688,28.42552,28.42552,0,0,0,.746-3.32111l1.004-6.11653.18426-1.11629H54.69458l1.09593,6.59624A31.51377,31.51377,0,0,0,56.58261,70.18656Z" fill="#009edc"/><rect x="38.52511" y="26.5791" width="22.10458" height="46.12735" rx="11.05228" ry="11.05228" fill="#83ddff"/><circle cx="54.58547" cy="49.70736" r="1.20884" fill="#3f4758"/><circle cx="44.56934" cy="49.70736" r="1.20884" fill="#3f4758"/><path d="M46.68944,59.2419h6.68719a0,0,0,0,1,0,0v.40426A3.34359,3.34359,0,0,1,50.033,62.98975h0a3.34359,3.34359,0,0,1-3.34359-3.34359V59.2419a0,0,0,0,1,0,0Z" fill="#fff"/><ellipse cx="49.5774" cy="24.61224" rx="14.27133" ry="14.29493" fill="#214bc5"/><path d="M34.841,34.23768,35.246,44.656A10.43035,10.43035,0,0,0,41.889,26.56513Z" fill="#214bc5"/><path d="M69.31931,32.6647,58.37442,22.78455A14.76439,14.76439,0,0,0,68.51013,47.40062Z" fill="#214bc5"/><path d="M75.29665,89.55406c-4.65121,2.75841-11.36552,4.48357-18.81646,4.48357-1.09608,0-2.16449-.03694-3.22358-.1107,7.81026-.52586,14.51535-2.97064,18.45725-6.43019a30.78541,30.78541,0,0,0,2.77229,1.63293l.267.1384Z" fill="#d4299e"/><path d="M60.77038,90.59005v8.24067c-.91088.20435-1.82923.37952-2.76181.52551v-6.956l.13841-.073A14.87182,14.87182,0,0,0,60.77038,90.59005Z" fill="#3f4758"/><path d="M71.71386,87.49674c-3.96034,3.478-10.72074,5.9228-18.58632,6.43942h-.00922c-.57092.03688-1.13284.06453-1.713.083-.43285.00923-.875.01847-1.31711.01847h-.13818c-.41442,0-.81961-.00924-1.22492-.01847C39.828,93.77929,32.14669,91.07623,27.956,87.137a23.77294,23.77294,0,0,0,1.96178-1.48534,29.16611,29.16611,0,0,0,3.66566-3.57025.42721.42721,0,0,0,.09219.04611c3.813,3.75478,10.13127,5.40617,15.90611,5.40617,5.8116,0,12.16669-1.65139,15.97042-5.47069A29.89615,29.89615,0,0,0,69.227,85.63324,29.13124,29.13124,0,0,0,71.71386,87.49674Z" fill="#ff74db"/><path d="M50,3.64791A46.37033,46.37033,0,0,1,80.864,84.53463l-.05346.04907-.07325.05859-.07006.06238a47.07164,47.07164,0,0,1-4.37867,3.44483,45.59,45.59,0,0,1-16.31665,7.12316q-1.251.28089-2.54736.48414a46.56223,46.56223,0,0,1-15.37549-.08924c-.82715-.14233-1.68921-.31726-2.56225-.52026a45.76221,45.76221,0,0,1-16.10743-7.23572c-1.23877-.87549-2.42236-1.79919-3.51806-2.74548l-.03174-.02747-.03247-.02673-.05518-.04688c-.04468-.03833-.08935-.07654-.13525-.11487A46.36963,46.36963,0,0,1,50,3.64791M50,.00142A50.01615,50.01615,0,0,0,17.24487,87.72884c.08032.06567.15332.13135.23316.19714q1.82556,1.57655,3.79663,2.96338a49.60143,49.60143,0,0,0,17.387,7.80994c.91089.21167,1.83618.40149,2.769.562a50.21418,50.21418,0,0,0,16.57788.095c.93262-.146,1.85108-.32116,2.76172-.52551a49.40586,49.40586,0,0,0,17.59815-7.686,50.58595,50.58595,0,0,0,4.72192-3.71508c.073-.05848.14575-.12415.21875-.18982A50.01675,50.01675,0,0,0,50,.00142Z" fill="#36c5fa"/><path d="M0,0V100H100V0ZM80.89624,84.48848c-.06736.06081-.13508.12166-.20279.17575-.59483.52724-1.20321,1.04095-1.8319,1.53438v.00677a46.309,46.309,0,0,1-57.49612.1893v-.00677c-.5207-.41231-1.03427-.83144-1.53466-1.264-.07448-.06085-.14184-.12166-.21633-.18252a46.30243,46.30243,0,1,1,61.2818-.45289Z" fill="#36c5fa"/></svg>