<svg width="24" height="24" viewBox="0 0 24 24" fill="none" xmlns="http://www.w3.org/2000/svg">
<path d="M12 22C17.5228 22 22 17.5228 22 12C22 6.47715 17.5228 2 12 2C6.47715 2 2 6.47715 2 12C2 17.5228 6.47715 22 12 22Z" fill="#24BECA"/>
<path d="M16.2514 15.469C15.7202 16.1877 15.0327 16.9377 14.1264 17.5002C13.2514 18.0627 12.2514 18.5002 11.0639 18.5002C9.97017 18.5002 9.06392 17.9377 8.56392 17.469C7.81392 16.7502 7.40767 15.719 7.28267 14.7502C6.90767 11.7502 8.75142 7.78149 11.5952 6.06274C12.2514 5.65649 12.9702 5.46899 13.6577 5.46899C15.0327 5.46899 16.0639 6.43774 16.1889 7.62524C16.3139 8.68774 15.9077 9.59399 14.7202 10.1877C14.1264 10.5002 13.8139 10.469 13.7202 10.344C13.6577 10.2502 13.6889 10.094 13.8139 10.0002C14.9077 9.09399 14.9389 8.34399 14.8139 7.28149C14.7202 6.59399 14.2827 6.15649 13.7827 6.15649C11.6264 6.15649 8.50142 11.0002 8.93892 14.5002C9.09517 15.8752 9.93892 17.469 11.6889 17.469C12.2514 17.469 12.8764 17.3127 13.4077 17.0315C14.6264 16.4065 15.1577 15.969 15.8764 14.969C15.9702 14.844 16.0639 14.6877 16.1577 14.5627C16.2202 14.4377 16.3452 14.4065 16.4389 14.4065C16.5327 14.4065 16.6577 14.5002 16.6577 14.6565C16.6577 14.7502 16.6264 14.9377 16.5014 15.094C16.4702 15.1565 16.3764 15.344 16.2514 15.469Z" fill="white"/>
</svg>
