<svg width="20" height="20" viewBox="0 0 20 20" fill="none" xmlns="http://www.w3.org/2000/svg">
<path d="M14.1663 3.33335H13.1791C12.8341 2.36529 11.9193 1.66791 10.833 1.66669H9.16634C8.08002 1.66791 7.1652 2.36529 6.8202 3.33335H5.83301C4.4529 3.33488 3.33453 4.45325 3.33301 5.83335V15.8334C3.33453 17.2135 4.4529 18.3318 5.83301 18.3334H14.1663C15.5464 18.3318 16.6648 17.2135 16.6663 15.8334V5.83335C16.6648 4.45325 15.5464 3.33488 14.1663 3.33335ZM7.49967 4.16669C7.50084 3.24668 8.24634 2.50119 9.16634 2.50002H10.833C11.753 2.50119 12.4985 3.24668 12.4997 4.16669V5.00002H7.49967V4.16669ZM15.833 15.8334C15.8318 16.7534 15.0863 17.4988 14.1663 17.5H5.83301C4.913 17.4988 4.16751 16.7534 4.16634 15.8334V5.83335C4.16751 4.91335 4.913 4.16786 5.83301 4.16669H6.66634V5.41669C6.66634 5.41648 6.66634 5.41684 6.66634 5.41669C6.66649 5.64664 6.85301 5.83351 7.08301 5.83335H12.9163C12.9161 5.83335 12.9165 5.83335 12.9163 5.83335C13.1463 5.8332 13.3332 5.64669 13.333 5.41669V4.16669H14.1663C15.0863 4.16786 15.8318 4.91335 15.833 5.83335V15.8334ZM11.2497 11.6667H7.08301C6.85291 11.6667 6.66634 11.8533 6.66634 12.0834C6.66634 12.3135 6.85291 12.5 7.08301 12.5H11.2497C11.4798 12.5 11.6663 12.3135 11.6663 12.0834C11.6663 11.8533 11.4798 11.6667 11.2497 11.6667ZM12.9163 8.33335H7.08301C6.85291 8.33335 6.66634 8.51992 6.66634 8.75002C6.66634 8.98012 6.85291 9.16669 7.08301 9.16669H12.9163C13.1464 9.16669 13.333 8.98012 13.333 8.75002C13.333 8.51992 13.1464 8.33335 12.9163 8.33335Z" fill="black"/>
</svg>
