<svg width="56" height="56" viewBox="0 0 56 56" fill="none" xmlns="http://www.w3.org/2000/svg">
<g clip-path="url(#clip0_124_1261)">
<path d="M41.7436 0.173828H14.2561C6.47869 0.173828 0.173828 6.47874 0.173828 14.2562V41.7436C0.173828 49.5211 6.47869 55.826 14.2561 55.826H41.7436C49.5211 55.826 55.8259 49.5211 55.8259 41.7436V14.2562C55.8259 6.47874 49.5211 0.173828 41.7436 0.173828Z" fill="#121212"/>
<path d="M42.4744 12.6396C32.8811 12.6396 29.3429 19.4791 26.4904 24.9754L24.614 28.4882C21.5893 34.3175 19.3321 37.8586 13.5141 37.8586C13.1526 37.8582 12.7945 37.9291 12.4604 38.0672C12.1264 38.2052 11.8227 38.4079 11.567 38.6634C11.3112 38.9188 11.1084 39.2222 10.9699 39.5562C10.8315 39.8901 10.7603 40.2481 10.7603 40.6096V40.6096C10.7603 40.9711 10.8315 41.3291 10.9699 41.663C11.1084 41.997 11.3112 42.3004 11.567 42.5559C11.8227 42.8113 12.1264 43.0139 12.4604 43.152C12.7945 43.2901 13.1526 43.3609 13.5141 43.3606V43.3606C23.1073 43.3606 26.6455 36.5212 29.4981 31.0248L31.3631 27.512C34.3878 21.6827 36.6451 18.1417 42.4631 18.1417C42.8246 18.142 43.1826 18.0712 43.5167 17.9331C43.8508 17.795 44.1544 17.5924 44.4102 17.3369C44.6659 17.0814 44.8688 16.778 45.0072 16.444C45.1457 16.1101 45.2169 15.7522 45.2169 15.3907V15.3907C45.2169 15.0291 45.1457 14.6711 45.0072 14.3372C44.8688 14.0032 44.6659 13.6999 44.4102 13.4444C44.1544 13.1889 43.8508 12.9863 43.5167 12.8482C43.1826 12.7101 42.8246 12.6393 42.4631 12.6396H42.4744Z" fill="white"/>
</g>
<defs>
<clipPath id="clip0_124_1261">
<rect width="55.6521" height="55.6522" fill="white" transform="translate(0.173828 0.173828)"/>
</clipPath>
</defs>
</svg>
