<svg width="60" height="60" viewBox="0 0 60 60" fill="none" xmlns="http://www.w3.org/2000/svg">
    <rect width="60" height="60" rx="10" fill="#00DDB3"/>
    <path opacity="0.4" d="M50 20.5L50 51L9 51L9 9L40.5 9L50 20.5Z" fill="url(#paint0_linear_374_8358)"/>
    <path
        d="M19.875 42C19.3777 42 18.9008 41.8025 18.5492 41.4508C18.1975 41.0992 18 40.6223 18 40.125C18 39.6277 18.1975 39.1508 18.5492 38.7992C18.9008 38.4475 19.3777 38.25 19.875 38.25C22.9875 38.25 25.23 34.1681 27.6075 29.8462C30.405 24.7594 33.2981 19.5 38.625 19.5C39.1223 19.5 39.5992 19.6975 39.9508 20.0492C40.3025 20.4008 40.5 20.8777 40.5 21.375C40.5 21.8723 40.3025 22.3492 39.9508 22.7008C39.5992 23.0525 39.1223 23.25 38.625 23.25C35.5125 23.25 33.27 27.3319 30.8925 31.6538C28.095 36.7406 25.2019 42 19.875 42Z"
        fill="white" stroke="white" stroke-width="1.07143"/>
    <path
        d="M50.6797 31.9995V21.0226C50.6797 20.3696 50.4667 19.7345 50.0729 19.2136L42.9003 9.72424C42.3333 8.97409 41.4473 8.5332 40.507 8.5332H11.6797C10.0228 8.5332 8.67969 9.87635 8.67969 11.5332V47.5332C8.67969 49.1901 10.0228 50.5332 11.6797 50.5332H33.5"
        stroke="white" stroke-width="3.51174" stroke-linecap="round" stroke-linejoin="bevel"/>
    <path
        d="M46 56C44.0222 56 42.0888 55.4135 40.4443 54.3147C38.7998 53.2159 37.5181 51.6541 36.7612 49.8268C36.0043 47.9996 35.8063 45.9889 36.1922 44.0491C36.578 42.1093 37.5304 40.3275 38.9289 38.9289C40.3275 37.5304 42.1093 36.578 44.0491 36.1922C45.9889 35.8063 47.9996 36.0043 49.8268 36.7612C51.6541 37.5181 53.2159 38.7998 54.3147 40.4443C55.4135 42.0888 56 44.0222 56 46C55.9968 48.6512 54.9422 51.1929 53.0676 53.0676C51.1929 54.9422 48.6512 55.9968 46 56Z"
        fill="white"/>
    <path
        d="M44.5004 49.9122C44.0763 49.9105 43.6701 49.7412 43.3703 49.4411C43.0706 49.1411 42.9017 48.7347 42.9004 48.3106V43.6898C42.9004 43.4089 42.9743 43.133 43.1148 42.8898C43.2552 42.6466 43.4572 42.4446 43.7004 42.3042C43.9436 42.1638 44.2195 42.0898 44.5004 42.0898C44.7813 42.0898 45.0572 42.1638 45.3004 42.3042L49.3004 44.6146C49.5436 44.755 49.7456 44.957 49.886 45.2002C50.0264 45.4435 50.1003 45.7194 50.1003 46.0002C50.1003 46.281 50.0264 46.5569 49.886 46.8002C49.7456 47.0434 49.5436 47.2454 49.3004 47.3858L45.3004 49.6962C45.0574 49.8373 44.7814 49.9119 44.5004 49.9122Z"
        fill="#00DDB3"/>
    <defs>
        <linearGradient id="paint0_linear_374_8358" x1="29.5" y1="9" x2="29.5" y2="51" gradientUnits="userSpaceOnUse">
            <stop stop-color="#049D80"/>
            <stop offset="1" stop-color="#049D80" stop-opacity="0"/>
        </linearGradient>
    </defs>
</svg>