<svg xmlns="http://www.w3.org/2000/svg" width="20" height="20" viewBox="0 0 20 20" fill="none">
<path d="M17.5 10.8333H4.16668C3.94581 10.8333 3.73397 10.7456 3.57772 10.5895C3.42146 10.4334 3.33356 10.2217 3.33334 10.0008V9.16748C3.33401 8.50464 3.59761 7.86914 4.06631 7.40044C4.535 6.93175 5.17051 6.66814 5.83334 6.66748H15.8333C16.4962 6.66814 17.1317 6.93175 17.6004 7.40044C18.0691 7.86914 18.3327 8.50464 18.3333 9.16748V10.0008C18.3333 10.2217 18.2457 10.4335 18.0896 10.5898C17.9335 10.746 17.7217 10.8339 17.5008 10.8341L17.5 10.8333Z" fill="#A7C9FF"/>
<path d="M5 10.8335V15.8335C5.00066 16.4963 5.26427 17.1318 5.73296 17.6005C6.20166 18.0692 6.83716 18.3328 7.5 18.3335H14.1667C14.8295 18.3328 15.465 18.0692 15.9337 17.6005C16.4024 17.1318 16.666 16.4963 16.6667 15.8335V10.8335H5Z" fill="#7BAEFF"/>
<path d="M12.9167 1.6665C12.1317 1.6665 11.38 1.98484 10.8333 2.549C10.4974 2.20474 10.0815 1.94896 9.62268 1.80447C9.16389 1.65998 8.67647 1.63126 8.20389 1.72089C7.7313 1.81051 7.28824 2.01569 6.9142 2.31813C6.54017 2.62057 6.24679 3.01086 6.06023 3.45422C5.87366 3.89757 5.79971 4.3802 5.84496 4.85908C5.89021 5.33796 6.05327 5.79819 6.31958 6.19875C6.58589 6.59931 6.94719 6.92774 7.37126 7.15476C7.79532 7.38177 8.26898 7.50032 8.74999 7.49984H9.99999V18.3332H11.6667V7.49984H12.9167C13.2997 7.49984 13.6789 7.4244 14.0328 7.27782C14.3867 7.13124 14.7082 6.9164 14.979 6.64557C15.2499 6.37473 15.4647 6.0532 15.6113 5.69933C15.7579 5.34546 15.8333 4.96619 15.8333 4.58317C15.8333 4.20015 15.7579 3.82088 15.6113 3.46701C15.4647 3.11314 15.2499 2.79161 14.979 2.52078C14.7082 2.24994 14.3867 2.0351 14.0328 1.88852C13.6789 1.74195 13.2997 1.6665 12.9167 1.6665ZM7.49999 4.58317C7.49999 4.25165 7.63168 3.93371 7.8661 3.69929C8.10052 3.46487 8.41847 3.33317 8.74999 3.33317C9.08151 3.33317 9.39945 3.46487 9.63387 3.69929C9.86829 3.93371 9.99999 4.25165 9.99999 4.58317V5.83317H8.74999C8.05999 5.83317 7.49999 5.27317 7.49999 4.58317ZM12.9167 5.83317H11.6667V4.58317C11.6667 4.33594 11.74 4.09427 11.8773 3.88871C12.0147 3.68315 12.2099 3.52293 12.4383 3.42832C12.6667 3.33371 12.918 3.30896 13.1605 3.35719C13.403 3.40542 13.6257 3.52447 13.8005 3.69929C13.9754 3.8741 14.0944 4.09683 14.1426 4.33931C14.1909 4.58178 14.1661 4.83312 14.0715 5.06152C13.9769 5.28993 13.8167 5.48516 13.6111 5.62251C13.4056 5.75986 13.1639 5.83317 12.9167 5.83317Z" fill="#2479FF"/>
</svg>