<svg width="123" height="24" fill="none" xmlns="http://www.w3.org/2000/svg"><path d="M70.17 19.241h-.975v3.428h.975V19.24Zm0-1.129h-.975v.758h.975v-.758Zm-21.264 0h-1.02v4.557h3.112v-.874h-2.092v-3.683Zm4.106.844c-1.084 0-1.943.837-1.943 1.892 0 1.054.859 1.891 1.943 1.891s1.95-.837 1.95-1.891c0-1.055-.858-1.892-1.95-1.892Zm0 2.882c-.546 0-.954-.415-.954-.99s.407-.99.954-.99c.547 0 .954.421.954.99 0 .568-.407.99-.954.99Zm6.041.059c-.175 0-.328-.102-.328-.415v-1.455h.929v-.786h-.93v-.987h-.975v.987h-1.28v-.987h-.976v.987h-.53v.786h.53v1.47c0 .822.394 1.244 1.12 1.244.386 0 .706-.132.925-.277l-.277-.72a.895.895 0 0 1-.466.153c-.175 0-.328-.102-.328-.415v-1.455h1.28v1.47c0 .822.394 1.244 1.12 1.244.387 0 .706-.132.925-.277l-.276-.72a.895.895 0 0 1-.467.153h.004Zm6.164-1.307c-.148-1.023-1.041-1.746-2.02-1.603a1.869 1.869 0 0 0-1.594 2.144c.173 1.188 1.195 1.738 2.246 1.585a2.439 2.439 0 0 0 1.282-.591l-.461-.64c-.24.22-.585.373-.931.422-.475.07-.921-.108-1.107-.588l2.615-.38s-.004-.177-.028-.35l-.002.002Zm-2.694.091c.028-.468.344-.822.761-.883a.88.88 0 0 1 .982.63l-1.743.253Zm13.279-.091c-.148-1.023-1.041-1.746-2.02-1.603a1.869 1.869 0 0 0-1.593 2.144c.173 1.188 1.194 1.738 2.246 1.585a2.439 2.439 0 0 0 1.282-.591l-.462-.64c-.24.22-.585.373-.93.422-.475.07-.922-.108-1.108-.588l2.615-.38s-.003-.177-.028-.35l-.002.002Zm-2.694.091c.028-.468.345-.822.761-.883a.88.88 0 0 1 .983.63l-1.744.253Zm-1.336-2.569h-.976v4.557h.976v-4.557Zm6.051 2.278c-.335-.073-.641-.139-.641-.343 0-.153.21-.256.436-.256.32 0 .656.081 1.012.256l.328-.728a2.477 2.477 0 0 0-1.355-.364c-.683 0-1.412.393-1.412 1.135 0 .698.59.939 1.31 1.128.313.088.626.139.626.356 0 .218-.37.307-.596.307a1.76 1.76 0 0 1-1.136-.386l-.349.75c.204.19.705.494 1.485.494.677 0 1.587-.298 1.587-1.193 0-.743-.678-1.011-1.295-1.156Zm-16.66-1.149h-.975v3.428h.975V19.24Zm0-1.129h-.975v.758h.975v-.758Zm4.469 4.557h1.017v-1.862h1.725v-.864h-1.725v-.959h2.096v-.872h-3.113v4.557Zm-34.193-2.844h-.567v-.787h.567v-.24c0-.844.466-1.208 1.084-1.208.328 0 .69.094.946.226l-.277.72c-.08-.036-.24-.109-.407-.109-.204 0-.37.102-.37.48v.131h.909v.787h-.91v2.844h-.973v-2.845h-.002Zm2.198-.793h.96v.698c.103-.298.474-.77 1.274-.77v1.06c-.843 0-1.259.386-1.259 1.251v1.398h-.975v-3.637Zm2.295 1.818c0-1.055.859-1.892 1.943-1.892s1.95.837 1.95 1.891c0 1.055-.86 1.892-1.95 1.892-1.09 0-1.943-.837-1.943-1.892Zm2.895 0c0-.567-.407-.99-.952-.99-.545 0-.952.423-.952.99 0 .566.407.988.952.988.545 0 .953-.415.953-.989Zm1.313-1.818h.953v.488c.211-.328.64-.56 1.076-.56.575 0 .931.24 1.12.647.263-.437.765-.648 1.179-.648 1.025 0 1.346.706 1.346 1.637v2.073h-.975v-1.95c0-.48-.117-.837-.633-.837-.48 0-.742.386-.742.865v1.92h-.975v-1.95c0-.479-.109-.836-.633-.836-.494 0-.741.421-.741.9v1.884h-.976V19.03l.002.003Z" fill="#B5BFC9"/><path d="M30.872 1.923h3.03v13.58h-3.03V1.922Zm4.383 8.168c0-3.139 2.554-5.629 5.78-5.629 1.494 0 2.794.498 3.876 1.386l-1.753 2.035c-.498-.455-1.191-.737-2.056-.737-1.69 0-2.9 1.235-2.9 2.945 0 1.71 1.146 2.945 2.987 2.945.91 0 1.796-.346 2.36-.889l1.537 2.166c-1.04.888-2.49 1.407-4.049 1.407-3.226 0-5.78-2.49-5.78-5.629h-.002Zm9.878 0c0-3.139 2.555-5.629 5.781-5.629 3.226 0 5.802 2.49 5.802 5.629 0 3.139-2.554 5.629-5.802 5.629-3.248 0-5.78-2.49-5.78-5.629Zm8.617 0c0-1.689-1.213-2.945-2.836-2.945-1.623 0-2.836 1.256-2.836 2.945 0 1.689 1.213 2.945 2.836 2.945 1.623 0 2.836-1.235 2.836-2.945Zm4.052-5.413h2.836v1.45c.866-1.191 2.099-1.667 3.42-1.667 2.858 0 3.855 1.84 3.855 4.806v6.235H65.01V9.636c0-1.58-.412-2.424-1.884-2.424-1.471 0-2.424 1.169-2.424 2.815v5.477h-2.901V4.678Zm11.083 9.158 1.104-2.338c1.125.822 2.468 1.538 4.61 1.538 1.169 0 2.599-.54 2.599-1.645 0-1.104-1.256-1.364-2.49-1.667-2.62-.607-5.325-1.495-5.325-4.416 0-2.706 2.532-4.05 5.217-4.05 2.122 0 3.724.564 5.13 1.495l-1.103 2.339C77.5 4.355 76.028 3.966 74.6 3.966c-.737 0-2.123.282-2.123 1.343 0 .91 1.017 1.234 2.403 1.559 2.49.585 5.477 1.516 5.477 4.525 0 3.009-2.945 4.352-5.76 4.352-3.354 0-4.934-1.277-5.714-1.905l.002-.004Zm12.199-3.745c0-3.139 2.554-5.629 5.78-5.629 1.493 0 2.793.498 3.876 1.386l-1.754 2.035c-.497-.455-1.191-.737-2.056-.737-1.69 0-2.9 1.235-2.9 2.945 0 1.71 1.147 2.945 2.987 2.945.91 0 1.796-.346 2.36-.889l1.537 2.166c-1.04.888-2.49 1.407-4.048 1.407-3.227 0-5.78-2.49-5.78-5.629h-.002Zm9.878 0c0-3.139 2.554-5.629 5.78-5.629 3.227 0 5.802 2.49 5.802 5.629 0 3.139-2.554 5.629-5.802 5.629-3.247 0-5.78-2.49-5.78-5.629Zm8.616 0c0-1.689-1.213-2.945-2.836-2.945-1.623 0-2.836 1.256-2.836 2.945 0 1.689 1.213 2.945 2.836 2.945 1.623 0 2.836-1.235 2.836-2.945Zm3.94 1.061V4.68h2.9v6.083c0 1.516.649 2.208 1.992 2.208 1.516 0 2.251-1.277 2.251-2.75V4.68h2.902v10.824h-2.727v-1.516c-.649 1.061-2.122 1.732-3.376 1.732-2.988 0-3.94-1.753-3.94-4.568h-.002Zm12.795.865v-5h-1.58v-2.34h1.58V2.343h2.902v2.335h2.363v2.338h-2.363v4.958c0 .931.455 1.235.974 1.235.692 0 1.298-.39 1.386-.455l.822 2.144a4.984 4.984 0 0 1-2.75.822c-2.166 0-3.334-1.256-3.334-3.703Z" fill="#000"/><path d="M25.403 8.82 21.82 2.936A6.112 6.112 0 0 0 16.597 0H9.698a6.112 6.112 0 0 0-5.222 2.935L.892 8.82a6.11 6.11 0 0 0 0 6.358l3.584 5.886A6.112 6.112 0 0 0 9.698 24h6.9a6.112 6.112 0 0 0 5.221-2.935l3.584-5.886a6.11 6.11 0 0 0 0-6.358Z" fill="#00C6FF"/><path d="m20.272 17.42-3.968-3.59.076-.11c.486-.707.827-1.512.946-2.362a5.44 5.44 0 0 0-5.868-6.187C8.82 5.4 6.71 7.555 6.524 10.195a5.44 5.44 0 0 0 5.422 5.823c.829 0 1.624-.183 2.367-.544l.149-.072 4.193 3.796a1.202 1.202 0 0 0 1.617-1.776v-.002ZM12.3 14.023a3.463 3.463 0 0 1-3.795-3.795 3.472 3.472 0 0 1 3.086-3.087 3.461 3.461 0 0 1 3.795 3.795 3.472 3.472 0 0 1-3.086 3.087Z" fill="#fff"/></svg>