<svg width="20" height="20" viewBox="0 0 20 20" fill="none" xmlns="http://www.w3.org/2000/svg">
<path d="M17.8405 7.1983C17.8367 7.18193 17.8391 7.1655 17.8332 7.14927C17.8272 7.13279 17.8146 7.12145 17.8068 7.10619C16.9643 4.83528 15.1651 3.03601 12.8942 2.19352C12.8789 2.18574 12.8676 2.17318 12.8511 2.16718C12.8348 2.16128 12.8184 2.16361 12.802 2.1598C11.9253 1.84633 10.9849 1.66669 10.0003 1.66669C9.01578 1.66669 8.07538 1.84633 7.19861 2.1598C7.18223 2.16361 7.1658 2.16128 7.14958 2.16718C7.1331 2.17318 7.12175 2.18574 7.1065 2.19352C4.83558 3.03601 3.03632 4.83528 2.19383 7.10619C2.18605 7.12145 2.17348 7.13279 2.16748 7.14927C2.16158 7.1655 2.16392 7.18193 2.16011 7.1983C1.84664 8.07507 1.66699 9.01547 1.66699 10C1.66699 10.9872 1.84761 11.93 2.1627 12.8088C2.17119 12.8423 2.18116 12.8737 2.19729 12.9034C3.04008 15.1667 4.83375 16.9604 7.09714 17.8031C7.12689 17.8192 7.15827 17.8292 7.19179 17.8377C8.0705 18.1528 9.01323 18.3334 10.0003 18.3334C10.9765 18.3322 11.9093 18.1548 12.7796 17.8456C12.8033 17.8414 12.8277 17.8413 12.8505 17.8331C12.8717 17.8253 12.8868 17.8099 12.906 17.7992C15.172 16.9526 16.9665 15.1536 17.8073 12.8846C17.8137 12.8715 17.828 12.8649 17.8331 12.8509C17.8406 12.8302 17.8385 12.8093 17.8426 12.7883C18.1538 11.9154 18.3325 10.9796 18.3337 10C18.3337 9.01547 18.154 8.07507 17.8405 7.1983ZM12.952 3.10788C14.718 3.86639 16.134 5.28231 16.8925 7.04831L13.7403 8.19536C13.3314 7.35013 12.6502 6.66898 11.805 6.26004L12.952 3.10788ZM13.3337 10C13.3337 11.841 11.8413 13.3334 10.0003 13.3334C8.15935 13.3334 6.66699 11.841 6.66699 10C6.66699 8.15905 8.15935 6.66669 10.0003 6.66669C11.8405 6.66852 13.3318 8.15981 13.3337 10ZM10.0003 2.50002C10.7548 2.50083 11.4822 2.61563 12.169 2.82346L11.0224 5.9746C10.6936 5.89118 10.355 5.83335 10.0003 5.83335C9.64566 5.83335 9.30707 5.89118 8.97829 5.9746L7.83093 2.82152C8.51804 2.61416 9.24563 2.50002 10.0003 2.50002ZM7.0477 3.10544L8.19567 6.26004C7.35043 6.66898 6.66928 7.35013 6.26035 8.19536L3.10574 7.04739C3.86365 5.28007 5.28038 3.86334 7.0477 3.10544ZM2.50033 10C2.50033 9.24532 2.61446 8.51773 2.82183 7.83063L5.9749 8.97799C5.89149 9.30676 5.83366 9.64536 5.83366 10C5.83366 10.3547 5.89149 10.6933 5.9749 11.0221L2.82183 12.1694C2.61446 11.4823 2.50033 10.7547 2.50033 10ZM7.0477 16.8946C5.28038 16.1367 3.86365 14.72 3.10574 12.9526L6.26035 11.8047C6.66928 12.6499 7.35043 13.3311 8.19567 13.74L7.0477 16.8946ZM10.0003 17.5C9.24563 17.5 8.51804 17.3859 7.83093 17.1785L8.97829 14.0254C9.30707 14.1089 9.64566 14.1667 10.0003 14.1667C10.3549 14.1663 10.6934 14.1081 11.022 14.0245L12.1697 17.1785C11.4826 17.3859 10.755 17.5 10.0003 17.5ZM12.953 16.8946L11.8044 13.7385C12.649 13.3292 13.3295 12.6487 13.7388 11.8041L16.8949 12.9526C16.137 14.72 14.7203 16.1367 12.953 16.8946ZM17.1788 12.1694L14.0248 11.0217C14.1084 10.6931 14.1666 10.3546 14.167 10C14.167 9.64536 14.1092 9.30676 14.0257 8.97799L17.1769 7.83134C17.3847 8.51819 17.4995 9.24552 17.5003 10C17.5003 10.7547 17.3862 11.4823 17.1788 12.1694Z" fill="black"/>
</svg>
