<svg width="60" height="60" viewBox="0 0 60 60" fill="none" xmlns="http://www.w3.org/2000/svg">
  <rect width="60" height="60" rx="10" fill="#3AA0FF"/>
  <path opacity="0.4" d="M50 20.5L50 51L9 51L9 9L40.5 9L50 20.5Z" fill="url(#paint0_linear_370_7119)"/>
  <path
    d="M21.25 40.5C20.7859 40.5 20.3408 40.3156 20.0126 39.9874C19.6844 39.6593 19.5 39.2141 19.5 38.75C19.5 38.2859 19.6844 37.8407 20.0126 37.5126C20.3408 37.1844 20.7859 37 21.25 37C24.155 37 26.248 33.1902 28.467 29.1565C31.078 24.4087 33.7782 19.5 38.75 19.5C39.2141 19.5 39.6593 19.6844 39.9874 20.0126C40.3156 20.3408 40.5 20.7859 40.5 21.25C40.5 21.7141 40.3156 22.1592 39.9874 22.4874C39.6593 22.8156 39.2141 23 38.75 23C35.845 23 33.752 26.8098 31.533 30.8435C28.922 35.5913 26.2218 40.5 21.25 40.5Z"
    fill="white"/>
  <path
    d="M50.6797 33.4995V21.0226C50.6797 20.3696 50.4667 19.7345 50.0729 19.2136L42.9003 9.72424C42.3333 8.97409 41.4473 8.5332 40.507 8.5332H11.6797C10.0228 8.5332 8.67969 9.87635 8.67969 11.5332V47.5332C8.67969 49.1901 10.0228 50.5332 11.6797 50.5332H33.5"
    stroke="white" stroke-width="3.51174" stroke-linecap="round" stroke-linejoin="bevel"/>
  <path
    d="M46.5004 43C44.8004 43 43.5004 44.3 43.5004 46C43.5004 47.7 44.8004 49 46.5004 49C48.2004 49 49.5004 47.7 49.5004 46C49.5004 44.3 48.2004 43 46.5004 43ZM56.4004 45.6C54.4004 40.9 50.6004 38 46.5004 38C42.4004 38 38.6004 40.9 36.6004 45.6C36.5004 45.9 36.5004 46.1 36.6004 46.4C38.6004 51.1 42.4004 54 46.5004 54C50.6004 54 54.4004 51.1 56.4004 46.4C56.5004 46.1 56.5004 45.9 56.4004 45.6ZM46.5004 51C43.7004 51 41.5004 48.8 41.5004 46C41.5004 43.2 43.7004 41 46.5004 41C49.3004 41 51.5004 43.2 51.5004 46C51.5004 48.8 49.3004 51 46.5004 51Z"
    fill="white"/>
  <defs>
    <linearGradient id="paint0_linear_370_7119" x1="29.5" y1="9" x2="29.5" y2="51" gradientUnits="userSpaceOnUse">
      <stop stop-color="#0058E3"/>
      <stop offset="1" stop-color="#0058E3" stop-opacity="0"/>
    </linearGradient>
  </defs>
</svg>