<svg width="56" height="56" viewBox="0 0 56 56" fill="none" xmlns="http://www.w3.org/2000/svg">
    <rect width="56" height="56" rx="9.33333" fill="#00DDB3"/>
    <path opacity="0.4"
        d="M46.667 19.1337L46.667 47.6004L8.40032 47.6004L8.40033 8.40039L37.8003 8.40039L46.667 19.1337Z"
        fill="url(#paint0_linear_370_7343)"/>
    <path
        d="M19.8335 37.8002C19.4003 37.8002 18.9849 37.6281 18.6786 37.3218C18.3723 37.0155 18.2002 36.6 18.2002 36.1669C18.2002 35.7337 18.3723 35.3182 18.6786 35.0119C18.9849 34.7056 19.4003 34.5335 19.8335 34.5335C22.5449 34.5335 24.4983 30.9778 26.5694 27.2129C29.0063 22.7817 31.5266 18.2002 36.1669 18.2002C36.6 18.2002 37.0155 18.3723 37.3218 18.6786C37.6281 18.9849 37.8002 19.4003 37.8002 19.8335C37.8002 20.2667 37.6281 20.6822 37.3218 20.9885C37.0155 21.2948 36.6 21.4669 36.1669 21.4669C33.4555 21.4669 31.5021 25.0226 29.431 28.7875C26.9941 33.2187 24.4738 37.8002 19.8335 37.8002Z"
        fill="white"/>
    <path
        d="M47.3006 28.2658V19.6206C47.3006 19.0112 47.1018 18.4184 46.7343 17.9323L40.0398 9.0755C39.5106 8.37537 38.6837 7.96387 37.8061 7.96387H10.9006C9.35419 7.96387 8.10059 9.21747 8.10059 10.7639V44.3639C8.10059 45.9103 9.35418 47.1639 10.9006 47.1639H28.2662"
        stroke="white" stroke-width="3.27763" stroke-linecap="round" stroke-linejoin="bevel"/>
    <rect x="32.1338" y="32.1338" width="20" height="20" rx="10" fill="white"/>
    <path
        d="M45.3009 40.467C45.3009 40.2459 45.2131 40.034 45.0568 39.8777C44.9005 39.7214 44.6886 39.6336 44.4676 39.6336H38.4759L40.3926 37.7253C40.5495 37.5684 40.6376 37.3555 40.6376 37.1336C40.6376 36.9117 40.5495 36.6989 40.3926 36.542C40.2356 36.385 40.0228 36.2969 39.8009 36.2969C39.579 36.2969 39.3662 36.385 39.2092 36.542L35.8759 39.8753C35.7603 39.9925 35.6819 40.1413 35.6508 40.3029C35.6196 40.4646 35.6371 40.6319 35.7009 40.7836C35.7634 40.9358 35.8696 41.0661 36.006 41.158C36.1424 41.25 36.303 41.2995 36.4676 41.3003H44.4676C44.6886 41.3003 44.9005 41.2125 45.0568 41.0562C45.2131 40.8999 45.3009 40.688 45.3009 40.467ZM48.5676 43.4836C48.505 43.3314 48.3989 43.2012 48.2625 43.1092C48.126 43.0173 47.9654 42.9678 47.8009 42.967H39.8009C39.5799 42.967 39.3679 43.0547 39.2116 43.211C39.0554 43.3673 38.9676 43.5793 38.9676 43.8003C38.9676 44.0213 39.0554 44.2333 39.2116 44.3895C39.3679 44.5458 39.5799 44.6336 39.8009 44.6336H45.7926L43.8759 46.542C43.7978 46.6194 43.7358 46.7116 43.6935 46.8131C43.6512 46.9147 43.6294 47.0236 43.6294 47.1336C43.6294 47.2436 43.6512 47.3525 43.6935 47.4541C43.7358 47.5556 43.7978 47.6478 43.8759 47.7253C43.9534 47.8034 44.0455 47.8654 44.1471 47.9077C44.2486 47.95 44.3576 47.9718 44.4676 47.9718C44.5776 47.9718 44.6865 47.95 44.788 47.9077C44.8896 47.8654 44.9818 47.8034 45.0592 47.7253L48.3926 44.392C48.5082 44.2748 48.5865 44.126 48.6177 43.9643C48.6488 43.8026 48.6314 43.6354 48.5676 43.4836Z"
        fill="#04A183" stroke="#04A183" stroke-width="0.833333"/>
    <defs>
        <linearGradient id="paint0_linear_370_7343" x1="27.5337" y1="8.40039" x2="27.5337" y2="47.6004"
            gradientUnits="userSpaceOnUse">
            <stop stop-color="#049D80"/>
            <stop offset="1" stop-color="#049D80" stop-opacity="0"/>
        </linearGradient>
    </defs>
</svg>