<svg width="61" height="60" viewBox="0 0 61 60" fill="none" xmlns="http://www.w3.org/2000/svg">
  <rect x="0.5" width="60" height="60" rx="10" fill="#50C154"/>
  <path opacity="0.4" d="M50.5 20.5L50.5 51L9.5 51L9.5 9L41 9L50.5 20.5Z" fill="url(#paint0_linear_374_8437)"/>
  <path
    d="M20.8047 43.8804C23.5211 44.4104 30.345 43.1516 30.345 31.1599C30.345 28.3363 29.854 26.1179 28.7556 24.0045M26.238 20.3606C26.238 20.3606 25.1302 19.1764 24.1179 18.373"
    stroke="white" stroke-width="3.6" stroke-linecap="round" stroke-linejoin="bevel"/>
  <path
    d="M20.8046 43.88C18.0883 43.35 16.5943 39.9711 17.0285 37.9173C18.6738 30.1349 28.8571 30.4784 35.182 30.5135M50.354 30.6295H44.0599M42.3374 30.5632L36.7721 30.5301"
    stroke="#B7F4B9" stroke-width="3.6" stroke-linejoin="bevel"/>
  <path
    d="M20.25 17.5C21.2165 17.5 22 16.7165 22 15.75C22 14.7835 21.2165 14 20.25 14C19.2835 14 18.5 14.7835 18.5 15.75C18.5 16.7165 19.2835 17.5 20.25 17.5Z"
    fill="white"/>
  <path d="M20.8047 43.8801C21.999 44.1132 23.9872 44.0004 25.8404 42.7817" stroke="white" stroke-width="3.6"
    stroke-linecap="round" stroke-linejoin="bevel"/>
  <path
    d="M51.1797 32V21.0231C51.1797 20.3701 50.9667 19.735 50.5729 19.2141L43.4003 9.72472C42.8333 8.97458 41.9473 8.53369 41.007 8.53369H12.1797C10.5228 8.53369 9.17969 9.87684 9.17969 11.5337V47.5337C9.17969 49.1905 10.5228 50.5337 12.1797 50.5337H34"
    stroke="white" stroke-width="3.51174" stroke-linecap="round" stroke-linejoin="bevel"/>
  <path
    d="M46.5 56C44.5222 56 42.5888 55.4135 40.9443 54.3147C39.2998 53.2159 38.0181 51.6541 37.2612 49.8268C36.5043 47.9996 36.3063 45.9889 36.6922 44.0491C37.078 42.1093 38.0304 40.3275 39.4289 38.9289C40.8275 37.5304 42.6093 36.578 44.5491 36.1922C46.4889 35.8063 48.4996 36.0043 50.3268 36.7612C52.1541 37.5181 53.7159 38.7998 54.8147 40.4443C55.9135 42.0888 56.5 44.0222 56.5 46C56.4968 48.6512 55.4422 51.1929 53.5676 53.0676C51.6929 54.9422 49.1512 55.9968 46.5 56Z"
    fill="white"/>
  <path
    d="M45.0004 49.9122C44.5763 49.9105 44.1701 49.7412 43.8703 49.4411C43.5706 49.1411 43.4017 48.7347 43.4004 48.3106V43.6898C43.4004 43.4089 43.4743 43.133 43.6148 42.8898C43.7552 42.6466 43.9572 42.4446 44.2004 42.3042C44.4436 42.1638 44.7195 42.0898 45.0004 42.0898C45.2813 42.0898 45.5572 42.1638 45.8004 42.3042L49.8004 44.6146C50.0436 44.755 50.2456 44.957 50.386 45.2002C50.5264 45.4435 50.6003 45.7194 50.6003 46.0002C50.6003 46.281 50.5264 46.5569 50.386 46.8002C50.2456 47.0434 50.0436 47.2454 49.8004 47.3858L45.8004 49.6962C45.5574 49.8373 45.2814 49.9119 45.0004 49.9122Z"
    fill="#50C154"/>
  <defs>
    <linearGradient id="paint0_linear_374_8437" x1="30" y1="9" x2="30" y2="51" gradientUnits="userSpaceOnUse">
      <stop stop-color="#0F8B14"/>
      <stop offset="1" stop-color="#0F8B14" stop-opacity="0"/>
    </linearGradient>
  </defs>
</svg>