<svg width="21" height="20" viewBox="0 0 21 20" fill="none" xmlns="http://www.w3.org/2000/svg">
<g clip-path="url(#clip0_1277_8879)">
<path d="M11.3711 1.25C9.05253 1.25676 6.83086 2.1808 5.19138 3.82028C3.5519 5.45976 2.62785 7.68144 2.62109 10L13.7067 12.3356L11.3711 1.25Z" fill="#ED6C47"/>
<path d="M11.3711 1.25C13.6897 1.25676 15.9113 2.1808 17.5508 3.82028C19.1903 5.45976 20.1143 7.68144 20.1211 10L15.7461 12.9737L11.3711 10V1.25Z" fill="#FF8F6B"/>
<path d="M11.3711 18.75C13.6897 18.7432 15.9113 17.8192 17.5508 16.1797C19.1903 14.5402 20.1143 12.3186 20.1211 10H2.62109C2.62785 12.3186 3.5519 14.5402 5.19138 16.1797C6.83086 17.8192 9.05253 18.7432 11.3711 18.75Z" fill="#D35230"/>
<path opacity="0.1" d="M10.5372 4.375H4.68716C3.25847 6.05834 2.52356 8.22209 2.6315 10.4273C2.73944 12.6326 3.68215 14.7142 5.26841 16.25H10.5372C10.758 16.2495 10.9697 16.1616 11.1259 16.0055C11.2822 15.8494 11.3703 15.6377 11.3709 15.4169V5.20813C11.3703 4.98726 11.2822 4.77564 11.1259 4.61953C10.9697 4.46341 10.758 4.37549 10.5372 4.375Z" fill="black"/>
<path opacity="0.2" d="M9.91197 5H4.20822C2.91989 6.82798 2.38578 9.08222 2.71695 11.2939C3.04812 13.5056 4.21909 15.5046 5.98634 16.875H9.91259C10.1333 16.8743 10.3449 16.7864 10.501 16.6303C10.6571 16.4742 10.7451 16.2626 10.7457 16.0419V5.83313C10.7451 5.61226 10.657 5.40064 10.5007 5.24453C10.3445 5.08841 10.1328 5.00049 9.91197 5Z" fill="black"/>
<path opacity="0.2" d="M9.91189 5H4.20814C3.09842 6.57337 2.54323 8.471 2.6299 10.3944C2.71656 12.3178 3.44017 14.1578 4.68689 15.625H9.91251C10.1333 15.6243 10.3448 15.5364 10.5009 15.3803C10.657 15.2242 10.745 15.0126 10.7456 14.7919V5.83313C10.745 5.61226 10.6569 5.40064 10.5007 5.24453C10.3444 5.08841 10.1328 5.00049 9.91189 5Z" fill="black"/>
<path opacity="0.2" d="M9.28689 5H4.20814C3.09842 6.57337 2.54323 8.471 2.6299 10.3944C2.71656 12.3178 3.44017 14.1578 4.68689 15.625H9.28751C9.50827 15.6243 9.7198 15.5364 9.87589 15.3803C10.032 15.2242 10.12 15.0126 10.1206 14.7919V5.83313C10.12 5.61226 10.0319 5.40064 9.87567 5.24453C9.71944 5.08841 9.50775 5.00049 9.28689 5Z" fill="black"/>
<path d="M0.954219 5H9.28797C9.50893 5 9.72084 5.08778 9.87708 5.24402C10.0333 5.40026 10.1211 5.61217 10.1211 5.83313V14.1669C10.1211 14.3878 10.0333 14.5997 9.87708 14.756C9.72084 14.9122 9.50893 15 9.28797 15H0.954219C0.73326 15 0.521352 14.9122 0.36511 14.756C0.208869 14.5997 0.121094 14.3878 0.121094 14.1669L0.121094 5.83313C0.121094 5.61217 0.208869 5.40026 0.36511 5.24402C0.521352 5.08778 0.73326 5 0.954219 5Z" fill="#C43E1C"/>
<path d="M5.11922 6.87503C5.73464 6.83359 6.3448 7.01188 6.84109 7.37815C7.04464 7.55978 7.20422 7.78533 7.30773 8.03774C7.41125 8.29014 7.456 8.56278 7.43859 8.83503C7.44542 9.18852 7.3421 9.53538 7.14297 9.82753C6.94027 10.1504 6.64857 10.4078 6.30297 10.5688C5.90785 10.7522 5.476 10.8429 5.04047 10.8338H3.84672V13.125H2.62109V6.87503H5.11922ZM3.84609 9.8019H4.90047C5.23477 9.82649 5.5665 9.72777 5.83297 9.5244C5.93885 9.45629 6.02413 9.36058 6.07964 9.24758C6.13515 9.13458 6.15877 9.00858 6.14797 8.88315C6.14797 8.1919 5.74526 7.84628 4.93984 7.84628H3.84609V9.8019Z" fill="#F9F7F7"/>
</g>
<defs>
<clipPath id="clip0_1277_8879">
<rect width="20.1776" height="20" fill="white"/>
</clipPath>
</defs>
</svg>
