<svg width="20" height="20" viewBox="0 0 20 20" fill="none" xmlns="http://www.w3.org/2000/svg">
<g clip-path="url(#clip0_3908_22029)">
<path fill-rule="evenodd" clip-rule="evenodd" d="M3.72681 6.84353C3.72681 5.12207 5.12231 3.72659 6.84373 3.72659H13.1565C14.8779 3.72659 16.2734 5.12207 16.2734 6.84353V13.1563C16.2734 14.8777 14.8779 16.2732 13.1565 16.2732H6.84373C5.12231 16.2732 3.72681 14.8777 3.72681 13.1563V6.84353ZM6.84373 4.69982C5.65981 4.69982 4.70002 5.65957 4.70002 6.84353V13.1563C4.70002 14.3402 5.65981 15.3 6.84373 15.3H13.1565C14.3404 15.3 15.3002 14.3402 15.3002 13.1563V6.84353C15.3002 5.65957 14.3404 4.69982 13.1565 4.69982H6.84373Z" fill="#596080"/>
<path fill-rule="evenodd" clip-rule="evenodd" d="M8.76804 1.31995C8.76804 1.05121 8.98592 0.833344 9.25467 0.833344H10.7452C11.0139 0.833344 11.2318 1.05121 11.2318 1.31995C11.2318 1.5887 11.0139 1.80656 10.7452 1.80656H9.25467C8.98592 1.80656 8.76804 1.5887 8.76804 1.31995ZM3.35214 1.89293C3.51589 2.10602 3.4759 2.41152 3.2628 2.57528C3.00479 2.77355 2.77346 3.00488 2.57518 3.26289C2.41143 3.47599 2.10593 3.51598 1.89284 3.35223C1.67974 3.18848 1.63975 2.88298 1.8035 2.66988C2.05331 2.34481 2.34471 2.0534 2.66979 1.80359C2.88289 1.63983 3.18838 1.67984 3.35214 1.89293ZM16.6477 1.89293C16.8115 1.67984 17.117 1.63984 17.33 1.80359C17.6551 2.05341 17.9465 2.34481 18.1963 2.66988C18.3601 2.88298 18.3201 3.18848 18.107 3.35223C17.8939 3.51598 17.5884 3.47599 17.4247 3.26289C17.2264 3.00488 16.995 2.77355 16.737 2.57528C16.524 2.41152 16.484 2.10602 16.6477 1.89293ZM18.68 8.76813C18.9487 8.76813 19.1666 8.98601 19.1666 9.25476V10.7453C19.1666 11.014 18.9487 11.2319 18.68 11.2319C18.4112 11.2319 18.1934 11.014 18.1934 10.7453V9.25476C18.1934 8.98601 18.4112 8.76813 18.68 8.76813ZM1.31986 8.76813C1.58861 8.76813 1.80647 8.98601 1.80647 9.25476V10.7453C1.80647 11.014 1.58861 11.2319 1.31986 11.2319C1.05111 11.2319 0.833252 11.014 0.833252 10.7453V9.25476C0.833252 8.98601 1.05111 8.76813 1.31986 8.76813ZM1.89284 16.6478C2.10593 16.484 2.41143 16.524 2.57518 16.7371C2.77346 16.9951 3.00479 17.2265 3.2628 17.4248C3.4759 17.5885 3.51589 17.894 3.35214 18.1071C3.18838 18.3202 2.88289 18.3602 2.66979 18.1964C2.34471 17.9466 2.05331 17.6552 1.8035 17.3301C1.63974 17.117 1.67974 16.8115 1.89284 16.6478ZM18.107 16.6478C18.3201 16.8115 18.3601 17.117 18.1963 17.3301C17.9465 17.6552 17.6551 17.9466 17.33 18.1964C17.117 18.3602 16.8115 18.3202 16.6477 18.1071C16.484 17.894 16.524 17.5885 16.737 17.4248C16.995 17.2265 17.2264 16.9951 17.4247 16.7371C17.5884 16.524 17.8939 16.484 18.107 16.6478ZM8.76804 18.68C8.76804 18.4113 8.98592 18.1935 9.25467 18.1935H10.7452C11.0139 18.1935 11.2318 18.4113 11.2318 18.68C11.2318 18.9488 11.0139 19.1667 10.7452 19.1667H9.25467C8.98592 19.1667 8.76804 18.9488 8.76804 18.68Z" fill="#596080"/>
<path fill-rule="evenodd" clip-rule="evenodd" d="M7.03196 9.12974C7.21225 8.94945 7.50113 8.9389 7.69408 9.10553L14.395 14.8922C14.5984 15.0679 14.6209 15.3752 14.4453 15.5786C14.2696 15.782 13.9623 15.8045 13.7589 15.6288L7.40033 10.1377L4.68883 12.8492C4.49879 13.0392 4.19071 13.0392 4.00068 12.8492C3.81065 12.6592 3.81065 12.3511 4.00068 12.161L7.03196 9.12974Z" fill="#596080"/>
<path fill-rule="evenodd" clip-rule="evenodd" d="M11.2775 9.11478C11.4606 8.94732 11.7403 8.94441 11.9268 9.10795L15.9762 12.6589C16.1782 12.8361 16.1984 13.1435 16.0212 13.3456C15.844 13.5477 15.5365 13.5678 15.3345 13.3906L11.6129 10.127L10.0655 11.5426C9.86724 11.7239 9.55945 11.7103 9.37807 11.512C9.19665 11.3137 9.21036 11.0059 9.40865 10.8245L11.2775 9.11478Z" fill="#596080"/>
<path fill-rule="evenodd" clip-rule="evenodd" d="M9.34237 7.93524C8.95741 7.93524 8.64537 7.6232 8.64537 7.23824C8.64537 6.85328 8.95741 6.5412 9.34237 6.5412C9.72733 6.5412 10.0394 6.85328 10.0394 7.23824C10.0394 7.6232 9.72733 7.93524 9.34237 7.93524ZM7.67212 7.23824C7.67212 8.1607 8.41991 8.90849 9.34237 8.90849C10.2648 8.90849 11.0126 8.1607 11.0126 7.23824C11.0126 6.31578 10.2648 5.56799 9.34237 5.56799C8.41991 5.56799 7.67212 6.31578 7.67212 7.23824Z" fill="#596080"/>
<path d="M18.6799 12.6314C18.9487 12.6314 19.1666 12.8493 19.1666 13.118V13.8633C19.1666 14.0707 19.1531 14.2752 19.1269 14.4759C19.0921 14.7424 18.8479 14.9302 18.5814 14.8955C18.3149 14.8607 18.1271 14.6165 18.1619 14.35C18.1826 14.191 18.1934 14.0285 18.1934 13.8633V13.118C18.1934 12.8493 18.4112 12.6314 18.6799 12.6314Z" fill="#596080"/>
<path d="M1.31986 12.6314C1.58861 12.6314 1.80647 12.8493 1.80647 13.118V13.8633C1.80647 14.0285 1.8172 14.191 1.83796 14.35C1.87271 14.6165 1.68486 14.8607 1.41837 14.8955C1.15189 14.9302 0.907673 14.7424 0.87291 14.4759C0.846731 14.2752 0.833252 14.0707 0.833252 13.8633V13.118C0.833252 12.8493 1.05111 12.6314 1.31986 12.6314Z" fill="#596080"/>
<path d="M1.41837 4.80211C1.68486 4.83686 1.87271 5.08107 1.83796 5.34757C1.8172 5.50666 1.80647 5.66911 1.80647 5.83428V6.57957C1.80647 6.84832 1.58861 7.06616 1.31986 7.06616C1.05111 7.06616 0.833252 6.84832 0.833252 6.57957V5.83428C0.833252 5.62691 0.846731 5.42241 0.87291 5.2217C0.907673 4.9552 1.15189 4.76736 1.41837 4.80211Z" fill="#596080"/>
<path d="M18.5814 4.80211C18.8479 4.76736 19.0921 4.9552 19.1269 5.2217C19.1531 5.42241 19.1666 5.62691 19.1666 5.83428V6.57957C19.1666 6.84832 18.9487 7.06616 18.6799 7.06616C18.4112 7.06616 18.1934 6.84832 18.1934 6.57957V5.83428C18.1934 5.66911 18.1826 5.50666 18.1619 5.34757C18.1271 5.08107 18.3149 4.83686 18.5814 4.80211Z" fill="#596080"/>
<path d="M15.0961 18.5815C15.1308 18.848 14.943 19.0922 14.6765 19.127C14.4758 19.1531 14.2713 19.1666 14.0639 19.1666H13.3186C13.0499 19.1666 12.832 18.9488 12.832 18.68C12.832 18.4113 13.0499 18.1934 13.3186 18.1934H14.0639C14.2291 18.1934 14.3915 18.1827 14.5506 18.1619C14.8171 18.1271 15.0613 18.315 15.0961 18.5815Z" fill="#596080"/>
<path d="M12.832 1.31995C12.832 1.05121 13.0499 0.833344 13.3186 0.833344H14.0639C14.2713 0.833344 14.4758 0.846823 14.6765 0.873002C14.943 0.907764 15.1308 1.15198 15.0961 1.41846C15.0613 1.68496 14.8171 1.87281 14.5506 1.83805C14.3915 1.81729 14.2291 1.80656 14.0639 1.80656H13.3186C13.0499 1.80656 12.832 1.5887 12.832 1.31995Z" fill="#596080"/>
<path d="M4.83887 18.5815C4.87362 18.315 5.11782 18.1271 5.38432 18.1619C5.54341 18.1827 5.70582 18.1934 5.87103 18.1934H6.61628C6.88503 18.1934 7.10291 18.4113 7.10291 18.68C7.10291 18.9488 6.88503 19.1666 6.61628 19.1666H5.87103C5.66366 19.1666 5.45916 19.1531 5.25845 19.127C4.99195 19.0922 4.80407 18.848 4.83887 18.5815Z" fill="#596080"/>
<path d="M5.87103 1.80656C5.70582 1.80656 5.54341 1.81729 5.38432 1.83805C5.11782 1.87281 4.87362 1.68496 4.83887 1.41846C4.80407 1.15198 4.99195 0.907764 5.25845 0.873002C5.45916 0.846823 5.66366 0.833344 5.87103 0.833344H6.61628C6.88503 0.833344 7.10291 1.05121 7.10291 1.31995C7.10291 1.5887 6.88503 1.80656 6.61628 1.80656H5.87103Z" fill="#596080"/>
</g>
<defs>
<clipPath id="clip0_3908_22029">
<rect width="20" height="20" fill="white"/>
</clipPath>
</defs>
</svg>
