<svg width="20" height="20" viewBox="0 0 20 20" fill="none" xmlns="http://www.w3.org/2000/svg">
<path d="M17.9999 2.25003C17.9999 2.08336 17.8332 2.00003 17.6665 1.9167C14.4999 1.08336 11.0832 2.1667 8.99987 4.6667L7.91653 5.9167L5.66653 5.33336C4.74987 5.00003 3.8332 5.4167 3.41653 6.25003L1.66653 9.33336C1.66653 9.33336 1.66653 9.41669 1.5832 9.41669C1.49987 9.66669 1.66653 9.83336 1.91653 9.91669L4.74987 10.5C4.49987 11.25 4.24987 12 4.16653 12.75C4.16653 12.9167 4.16653 13 4.24987 13.0834L6.74987 15.5C6.8332 15.5834 6.91653 15.5834 7.0832 15.5834C7.8332 15.5 8.66653 15.3334 9.41653 15.0834L9.99987 17.8334C9.99987 18 10.2499 18.1667 10.4165 18.1667C10.4999 18.1667 10.5832 18.1667 10.5832 18.0834L13.6665 16.3334C14.4165 15.9167 14.7499 15 14.5832 14.1667L13.9999 11.75L15.1665 10.6667C17.7499 8.75003 18.8332 5.4167 17.9999 2.25003ZM2.66653 9.25003L4.0832 6.6667C4.3332 6.1667 4.8332 6.00003 5.3332 6.1667L7.24987 6.6667L6.41653 7.6667C5.91653 8.33336 5.41653 9.00003 5.0832 9.75003L2.66653 9.25003ZM13.3332 15.8334L10.7499 17.3334L10.2499 14.9167C10.9999 14.5834 11.6665 14.0834 12.3332 13.5834L13.4165 12.5834L13.9165 14.5C13.9165 15 13.7499 15.5834 13.3332 15.8334ZM14.6665 10.25L11.7499 12.9167C10.4999 14 8.91653 14.6667 7.24987 14.8334L5.0832 12.6667C5.3332 11 5.99987 9.4167 7.0832 8.1667L8.41653 6.6667L8.49987 6.58336L9.66653 5.25003C11.4999 3.08336 14.4999 2.08336 17.2499 2.6667C17.8332 5.50003 16.9165 8.41669 14.6665 10.25ZM13.6665 4.6667C12.7499 4.6667 12.0832 5.4167 12.0832 6.25003C12.0832 7.08336 12.8332 7.83336 13.6665 7.83336C14.5832 7.83336 15.2499 7.08336 15.2499 6.25003C15.2499 5.4167 14.5832 4.6667 13.6665 4.6667ZM13.6665 7.08336C13.2499 7.08336 12.9165 6.75003 12.9165 6.33336C12.9165 5.9167 13.2499 5.58336 13.6665 5.58336C14.0832 5.58336 14.4165 5.9167 14.4165 6.33336C14.4165 6.75003 14.0832 7.08336 13.6665 7.08336Z" fill="black"/>
</svg>
