<svg width="56" height="57" viewBox="0 0 56 57" fill="none" xmlns="http://www.w3.org/2000/svg">
    <g clip-path="url(#clip0_374_8832)">
        <rect y="0.5" width="56" height="56" rx="7.46667" fill="#7C7DFD"/>
        <path
            d="M42.5013 35.8177V20.9044C43.357 20.6063 44.1229 20.0958 44.7274 19.4208C45.3319 18.7458 45.755 17.9283 45.9572 17.0451C46.1595 16.1618 46.1341 15.2417 45.8836 14.3709C45.633 13.5001 45.1655 12.7072 44.5248 12.0665C43.8841 11.4258 43.0911 10.9582 42.2204 10.7077C41.3496 10.4571 40.4294 10.4318 39.5462 10.634C38.6629 10.8362 37.8455 11.2594 37.1705 11.8639C36.4955 12.4683 35.985 13.2343 35.6868 14.09H20.7736C20.4754 13.2343 19.9649 12.4683 19.2899 11.8639C18.6149 11.2594 17.7975 10.8362 16.9142 10.634C16.0309 10.4318 15.1108 10.4571 14.24 10.7077C13.3693 10.9582 12.5763 11.4258 11.9356 12.0665C11.2949 12.7072 10.8274 13.5001 10.5768 14.3709C10.3263 15.2417 10.3009 16.1618 10.5031 17.0451C10.7054 17.9283 11.1285 18.7458 11.733 19.4208C12.3375 20.0958 13.1034 20.6063 13.9591 20.9044V35.8177C13.1034 36.1158 12.3375 36.6263 11.733 37.3013C11.1285 37.9764 10.7054 38.7938 10.5031 39.6771C10.3009 40.5603 10.3263 41.4804 10.5768 42.3512C10.8274 43.222 11.2949 44.0149 11.9356 44.6556C12.5763 45.2963 13.3693 45.7639 14.24 46.0144C15.1108 46.265 16.0309 46.2903 16.9142 46.0881C17.7975 45.8859 18.6149 45.4627 19.2899 44.8582C19.9649 44.2538 20.4754 43.4878 20.7736 42.6322H35.6868C35.985 43.4878 36.4955 44.2538 37.1705 44.8582C37.8455 45.4627 38.6629 45.8859 39.5462 46.0881C40.4294 46.2903 41.3496 46.265 42.2204 46.0144C43.0911 45.7639 43.8841 45.2963 44.5248 44.6556C45.1655 44.0149 45.633 43.222 45.8836 42.3512C46.1341 41.4804 46.1595 40.5603 45.9572 39.6771C45.755 38.7938 45.3319 37.9764 44.7274 37.3013C44.1229 36.6263 43.357 36.1158 42.5013 35.8177ZM40.7174 14.09C41.0702 14.09 41.4151 14.1946 41.7085 14.3906C42.0018 14.5866 42.2305 14.8652 42.3655 15.1912C42.5005 15.5171 42.5359 15.8758 42.467 16.2219C42.3982 16.5679 42.2283 16.8858 41.9788 17.1352C41.7293 17.3847 41.4115 17.5546 41.0654 17.6235C40.7194 17.6923 40.3607 17.657 40.0347 17.5219C39.7088 17.3869 39.4302 17.1583 39.2342 16.8649C39.0381 16.5716 38.9335 16.2267 38.9335 15.8738C38.9335 15.4007 39.1215 14.947 39.456 14.6124C39.7906 14.2779 40.2443 14.09 40.7174 14.09ZM15.743 14.09C16.0958 14.09 16.4407 14.1946 16.7341 14.3906C17.0274 14.5866 17.2561 14.8652 17.3911 15.1912C17.5261 15.5171 17.5614 15.8758 17.4926 16.2219C17.4238 16.5679 17.2539 16.8858 17.0044 17.1352C16.7549 17.3847 16.437 17.5546 16.091 17.6235C15.745 17.6923 15.3863 17.657 15.0603 17.5219C14.7344 17.3869 14.4558 17.1583 14.2597 16.8649C14.0637 16.5716 13.9591 16.2267 13.9591 15.8738C13.9591 15.4007 14.147 14.947 14.4816 14.6124C14.8161 14.2779 15.2699 14.09 15.743 14.09ZM15.743 42.6322C15.3902 42.6322 15.0453 42.5275 14.7519 42.3315C14.4586 42.1355 14.2299 41.8569 14.0949 41.5309C13.9599 41.205 13.9245 40.8463 13.9934 40.5002C14.0622 40.1542 14.2321 39.8363 14.4816 39.5869C14.7311 39.3374 15.0489 39.1675 15.395 39.0987C15.741 39.0298 16.0997 39.0652 16.4257 39.2002C16.7516 39.3352 17.0302 39.5638 17.2262 39.8572C17.4223 40.1506 17.5269 40.4954 17.5269 40.8483C17.5269 41.3214 17.3389 41.7751 17.0044 42.1097C16.6698 42.4442 16.2161 42.6322 15.743 42.6322ZM35.6868 39.0644H20.7736C20.5072 38.3162 20.0776 37.6367 19.5161 37.0752C18.9545 36.5136 18.275 36.0841 17.5269 35.8177V20.9044C18.275 20.638 18.9545 20.2085 19.5161 19.6469C20.0776 19.0854 20.5072 18.4059 20.7736 17.6577H35.6868C35.9532 18.4059 36.3828 19.0854 36.9443 19.6469C37.5059 20.2085 38.1854 20.638 38.9335 20.9044V35.8177C38.1854 36.0841 37.5059 36.5136 36.9443 37.0752C36.3828 37.6367 35.9532 38.3162 35.6868 39.0644ZM40.7174 42.6322C40.3646 42.6322 40.0197 42.5275 39.7263 42.3315C39.433 42.1355 39.2043 41.8569 39.0693 41.5309C38.9343 41.205 38.899 40.8463 38.9678 40.5002C39.0366 40.1542 39.2065 39.8363 39.456 39.5869C39.7055 39.3374 40.0233 39.1675 40.3694 39.0987C40.7154 39.0298 41.0741 39.0652 41.4001 39.2002C41.726 39.3352 42.0046 39.5638 42.2007 39.8572C42.3967 40.1506 42.5013 40.4954 42.5013 40.8483C42.5013 41.3214 42.3134 41.7751 41.9788 42.1097C41.6443 42.4442 41.1905 42.6322 40.7174 42.6322Z"
            fill="white"/>
        <path d="M18 0.5H56V58.3667H38L18 0.5Z" fill="#00DDB3"/>
        <path
            d="M38.4997 14H22.5L32.5 42.6584L38.4997 42.6584C40.7088 42.6584 42.4997 40.8675 42.4997 38.6583V18C42.4997 15.7909 40.7088 14 38.4997 14Z"
            fill="white"/>
    </g>
    <defs>
        <clipPath id="clip0_374_8832">
            <rect y="0.5" width="56" height="56" rx="7.46667" fill="white"/>
        </clipPath>
    </defs>
</svg>