<svg width="97" height="96" viewBox="0 0 97 96" fill="none" xmlns="http://www.w3.org/2000/svg">
<g clip-path="url(#clip0_2955_23848)">
<rect x="0.285156" width="96" height="96" rx="16" fill="#50C154"/>
<path d="M63.7713 79.1935C59.5284 79.1935 53.5327 76.975 48.0727 66.976C42.6161 76.975 36.6135 79.1935 32.3741 79.1935C25.7768 79.1935 20.3689 73.8916 18.1327 68.9765C16.4216 65.2005 16.1747 61.6178 17.4058 58.327C18.3448 55.8132 20.1046 53.5419 22.6642 51.5344C8.39496 50.3179 8.39844 36.0436 8.39844 31.2163C8.39844 26.7758 8.39844 16.376 16.8702 16.376C18.4805 16.376 20.3132 16.7487 22.4694 17.5186C31.2821 20.6583 43.023 31.8984 48.0727 41.4756C53.1224 31.8949 64.8633 20.6583 73.6724 17.5186C75.8321 16.7522 77.6579 16.376 79.2716 16.376C87.7469 16.376 87.7469 26.7758 87.7469 31.2163C87.7469 37.3972 86.8079 41.8096 84.8012 45.1004C82.4503 48.9432 78.6421 51.1055 73.4777 51.5414C76.0338 53.5419 77.797 55.8132 78.7395 58.3305C79.9706 61.6249 79.7237 65.2075 78.0127 68.9835C75.7765 73.8916 70.3686 79.1935 63.7713 79.1935Z" fill="#F7FBFF"/>
<ellipse cx="6.47743" cy="6.61237" rx="6.47743" ry="6.61237" transform="matrix(-1 0 0 1 27.8359 29.5996)" fill="#B0E8FD"/>
<ellipse cx="3.23871" cy="3.30619" rx="3.23871" ry="3.30619" transform="matrix(-1 0 0 1 34.3086 59.3564)" fill="#B0E8FD"/>
<g clip-path="url(#clip1_2955_23848)">
<rect width="46.2866" height="92.5732" transform="translate(1.78516 1.5)" fill="#50C154"/>
<rect x="41.8867" y="33.5" width="6.4" height="6.4" fill="#F7FBFF"/>
<rect x="14.6797" y="30.3008" width="30.4" height="6.4" fill="#F7FBFF"/>
<rect x="13.082" y="27.0996" width="28.8" height="6.4" fill="#F7FBFF"/>
<rect x="11.4805" y="22.2988" width="25.6" height="6.4" fill="#F7FBFF"/>
<rect x="17.8867" y="17.5" width="12.8" height="6.4" fill="#F7FBFF"/>
<rect x="17.8867" y="14.2998" width="6.4" height="6.4" fill="#F7FBFF"/>
<rect x="13.082" y="15.8994" width="6.4" height="6.4" fill="#F7FBFF"/>
<rect x="9.88281" y="20.6992" width="6.4" height="6.4" fill="#F7FBFF"/>
<rect x="8.28125" y="27.0996" width="6.4" height="6.4" fill="#F7FBFF"/>
<rect x="8.28125" y="33.5" width="38.4" height="6.4" fill="#F7FBFF"/>
<rect x="9.88281" y="39.8994" width="38.4" height="6.4" fill="#F7FBFF"/>
<rect x="13.082" y="43.0996" width="6.4" height="6.4" fill="#F7FBFF"/>
<rect x="19.4844" y="44.6992" width="28.8" height="6.4" fill="#F7FBFF"/>
<rect x="22.6836" y="51.0996" width="25.6" height="6.4" fill="#F7FBFF"/>
<rect x="19.4844" y="54.3008" width="27.2" height="6.4" fill="#F7FBFF"/>
<rect x="17.8867" y="59.1006" width="28.8" height="6.4" fill="#F7FBFF"/>
<rect x="17.8867" y="65.5" width="6.4" height="6.4" fill="#F7FBFF"/>
<rect x="21.0859" y="68.6992" width="6.4" height="6.4" fill="#F7FBFF"/>
<rect x="24.2852" y="71.9004" width="6.4" height="6.4" fill="#F7FBFF"/>
<rect x="29.082" y="73.5" width="6.4" height="6.4" fill="#F7FBFF"/>
<rect x="29.082" y="70.2988" width="11.2" height="6.4" fill="#F7FBFF"/>
<rect x="37.082" y="68.6992" width="6.4" height="6.4" fill="#F7FBFF"/>
<rect x="22.6836" y="65.5" width="24" height="6.4" fill="#F7FBFF"/>
</g>
<rect width="3.2" height="96" transform="matrix(-1 0 0 1 49.8828 0)" fill="#C4E9C4"/>
<rect opacity="0.32" x="41.8867" width="4.8" height="96" fill="black" fill-opacity="0.32"/>
<rect x="78.1848" y="14.263" width="5.33121" height="5.33121" rx="2.6656" fill="#C4E9C4" stroke="#00951D" stroke-width="1.52593"/>
<rect x="84.1848" y="37.4046" width="5.33121" height="5.33121" rx="2.6656" fill="#C4E9C4" stroke="#00951D" stroke-width="1.52593"/>
<rect x="76.4739" y="63.9768" width="5.33121" height="5.33121" rx="2.6656" fill="#C4E9C4" stroke="#00951D" stroke-width="1.52593"/>
<rect x="70.4739" y="48.5491" width="5.33121" height="5.33121" rx="2.6656" fill="#C4E9C4" stroke="#00951D" stroke-width="1.52593"/>
<rect x="61.9036" y="76.8352" width="5.33121" height="5.33121" rx="2.6656" fill="#C4E9C4" stroke="#00951D" stroke-width="1.52593"/>
</g>
<defs>
<clipPath id="clip0_2955_23848">
<rect x="0.285156" width="96" height="96" rx="16" fill="white"/>
</clipPath>
<clipPath id="clip1_2955_23848">
<rect width="46.2866" height="92.5732" fill="white" transform="translate(1.78516 1.5)"/>
</clipPath>
</defs>
</svg>
